<svg width="131" height="131" viewBox="0 0 131 131" fill="none" xmlns="http://www.w3.org/2000/svg">
<circle cx="65.5" cy="65.5" r="65.5" fill="#09335E"/>
<path d="M45.3337 50.4993H40.167V86.666C40.167 89.5077 42.492 91.8327 45.3337 91.8327H81.5003V86.666H45.3337V50.4993ZM71.167 63.416C75.4553 63.416 78.917 59.9543 78.917 55.666C78.917 51.3777 75.4553 47.916 71.167 47.916C66.8787 47.916 63.417 51.3777 63.417 55.666C63.417 59.9543 66.8787 63.416 71.167 63.416ZM71.167 53.0827C72.5878 53.0827 73.7503 54.2452 73.7503 55.666C73.7503 57.0868 72.5878 58.2493 71.167 58.2493C69.7462 58.2493 68.5837 57.0868 68.5837 55.666C68.5837 54.2452 69.7462 53.0827 71.167 53.0827ZM86.667 40.166H55.667C52.8253 40.166 50.5003 42.491 50.5003 45.3327V76.3327C50.5003 79.1744 52.8253 81.4994 55.667 81.4994H86.667C89.5087 81.4994 91.8337 79.1744 91.8337 76.3327V45.3327C91.8337 42.491 89.5087 40.166 86.667 40.166ZM62.6162 76.3327C65.1496 74.6477 68.1244 73.7488 71.167 73.7488C74.2096 73.7488 77.1844 74.6477 79.7178 76.3327H62.6162ZM86.667 75.6352C82.8695 71.321 77.367 68.5827 71.167 68.5827C64.967 68.5827 59.4645 71.321 55.667 75.6352V45.3327H86.667V75.6352Z" fill="#FAFAFA"/>
</svg>
