<svg width="24" height="24" viewBox="0 0 24 24" fill="none" xmlns="http://www.w3.org/2000/svg">
<path d="M3.82854 10.7571C3.43801 11.1476 3.43801 11.7808 3.82854 12.1713C4.21906 12.5618 4.85223 12.5618 5.24275 12.1713L3.82854 10.7571ZM5.94986 14.9997L6.65696 15.7068L5.94986 14.9997ZM13.9048 7.04479L13.1977 6.33768L13.9048 7.04479ZM8.77829 15.7068C8.38776 16.0974 8.38776 16.7305 8.77829 17.1211C9.16881 17.5116 9.80197 17.5116 10.1925 17.1211L8.77829 15.7068ZM5.24275 12.1713L12.137 5.27702L10.7228 3.86281L3.82854 10.7571L5.24275 12.1713ZM18.1475 11.2874L10.1925 19.2424L11.6067 20.6566L19.5617 12.7016L18.1475 11.2874ZM6.65696 15.7068L14.6119 7.7519L13.1977 6.33768L5.24275 14.2926L6.65696 15.7068ZM15.6726 8.81256L8.77829 15.7068L10.1925 17.1211L17.0868 10.2268L15.6726 8.81256ZM15.6726 7.7519C15.9655 8.04479 15.9655 8.51966 15.6726 8.81256L17.0868 10.2268C18.1607 9.15283 18.1607 7.41162 17.0868 6.33768L15.6726 7.7519ZM14.6119 7.7519C14.9048 7.459 15.3797 7.459 15.6726 7.7519L17.0868 6.33768C16.0128 5.26374 14.2716 5.26374 13.1977 6.33768L14.6119 7.7519ZM6.65696 19.2424C5.68065 18.2661 5.68065 16.6832 6.65696 15.7068L5.24275 14.2926C3.48539 16.05 3.48539 18.8992 5.24275 20.6566L6.65696 19.2424ZM10.1925 19.2424C9.21619 20.2187 7.63328 20.2187 6.65696 19.2424L5.24275 20.6566C7.00011 22.414 9.84935 22.414 11.6067 20.6566L10.1925 19.2424ZM18.1475 5.27702C19.8072 6.93675 19.8072 9.6277 18.1475 11.2874L19.5617 12.7016C22.0024 10.2609 22.0024 6.30359 19.5617 3.86281L18.1475 5.27702ZM12.137 5.27702C13.7968 3.61729 16.4877 3.61729 18.1475 5.27702L19.5617 3.86281C17.1209 1.42203 13.1636 1.42203 10.7228 3.86281L12.137 5.27702Z" fill="#09335E"/>
</svg>
