<svg width="131" height="131" viewBox="0 0 131 131" fill="none" xmlns="http://www.w3.org/2000/svg">
<circle cx="65.5" cy="65.5" r="65.5" fill="#09335E"/>
<path d="M58.25 78.916V76.416C56.8693 76.416 55.75 77.5353 55.75 78.916H58.25ZM73.75 78.916H76.25C76.25 77.5353 75.1307 76.416 73.75 76.416V78.916ZM58.25 81.416H73.75V76.416H58.25V81.416ZM71.25 78.916V81.4993H76.25V78.916H71.25ZM60.75 81.4993V78.916H55.75V81.4993H60.75ZM66 86.7493C63.1005 86.7493 60.75 84.3988 60.75 81.4993H55.75C55.75 87.1603 60.3391 91.7493 66 91.7493V86.7493ZM71.25 81.4993C71.25 84.3988 68.8995 86.7493 66 86.7493V91.7493C71.6609 91.7493 76.25 87.1603 76.25 81.4993H71.25Z" fill="#FAFAFA"/>
<path d="M89.2497 50.4993C89.2497 56.2063 84.6233 60.8327 78.9163 60.8327C73.2094 60.8327 68.583 56.2063 68.583 50.4993C68.583 44.7924 73.2094 40.166 78.9163 40.166C84.6233 40.166 89.2497 44.7924 89.2497 50.4993Z" stroke="#FAFAFA" stroke-width="5" stroke-linecap="round" stroke-linejoin="round"/>
<path d="M70.5574 45.9264C71.8779 46.3295 73.2752 45.5858 73.6784 44.2653C74.0815 42.9448 73.3379 41.5474 72.0173 41.1443L70.5574 45.9264ZM86.5249 59.2898C86.4198 57.9131 85.2186 56.8823 83.8419 56.9874C82.4651 57.0924 81.4343 58.2937 81.5394 59.6704L86.5249 59.2898ZM85.9097 72.9933L87.6779 71.226L87.6775 71.2255L85.9097 72.9933ZM46.0896 72.9933L44.3219 71.2255L44.3215 71.2259L46.0896 72.9933ZM47.4093 71.6737L49.177 73.4415L49.1772 73.4413L47.4093 71.6737ZM65.9997 45.25C67.5892 45.25 69.1188 45.4872 70.5574 45.9264L72.0173 41.1443C70.1108 40.5622 68.0894 40.25 65.9997 40.25V45.25ZM81.5394 59.6704C81.5684 60.0507 81.583 60.439 81.583 60.8333H86.583C86.583 60.3159 86.5639 59.8006 86.5249 59.2898L81.5394 59.6704ZM81.583 60.8333V70.4495H86.583V60.8333H81.583ZM81.583 70.4495C81.583 71.5719 82.0289 72.648 82.8223 73.4415L86.3579 69.906C86.5019 70.05 86.583 70.2457 86.583 70.4495H81.583ZM82.8223 73.4415L84.1419 74.7611L87.6775 71.2255L86.3579 69.906L82.8223 73.4415ZM84.1414 74.7606C84.1578 74.7769 84.1663 74.7984 84.1663 74.82H89.1663C89.1663 73.4713 88.6303 72.1789 87.6779 71.226L84.1414 74.7606ZM84.1663 74.82V76.3333H89.1663V74.82H84.1663ZM84.1663 76.3333C84.1663 76.3793 84.1291 76.4166 84.083 76.4166V81.4166C86.8905 81.4166 89.1663 79.1408 89.1663 76.3333H84.1663ZM84.083 76.4166H47.9163V81.4166H84.083V76.4166ZM47.9163 76.4166C47.8703 76.4166 47.833 76.3793 47.833 76.3333H42.833C42.833 79.1408 45.1089 81.4166 47.9163 81.4166V76.4166ZM47.833 76.3333V74.82H42.833V76.3333H47.833ZM47.833 74.82C47.833 74.7982 47.8416 74.7768 47.8577 74.7607L44.3215 71.2259C43.3687 72.179 42.833 73.4716 42.833 74.82H47.833ZM47.8574 74.7611L49.177 73.4415L45.6416 69.9059L44.3219 71.2255L47.8574 74.7611ZM49.1772 73.4413C49.9705 72.6479 50.4163 71.5719 50.4163 70.4495H45.4163C45.4163 70.2457 45.4974 70.0501 45.6414 69.9061L49.1772 73.4413ZM50.4163 70.4495V60.8333H45.4163V70.4495H50.4163ZM50.4163 60.8333C50.4163 52.2269 57.3932 45.25 65.9997 45.25V40.25C54.6318 40.25 45.4163 49.4655 45.4163 60.8333H50.4163Z" fill="#FAFAFA"/>
</svg>
