<svg width="46" height="46" viewBox="0 0 46 46" fill="none" xmlns="http://www.w3.org/2000/svg">
<path d="M3.8335 37.3333C3.28121 37.3333 2.8335 37.781 2.8335 38.3333C2.8335 38.8855 3.28121 39.3333 3.8335 39.3333V37.3333ZM42.1668 39.3333C42.7191 39.3333 43.1668 38.8855 43.1668 38.3333C43.1668 37.781 42.7191 37.3333 42.1668 37.3333V39.3333ZM3.8335 39.3333H42.1668V37.3333H3.8335V39.3333Z" fill="#09335E"/>
<path d="M13.4165 18.1667C12.8642 18.1667 12.4165 18.6145 12.4165 19.1667C12.4165 19.719 12.8642 20.1667 13.4165 20.1667V18.1667ZM21.0832 20.1667C21.6355 20.1667 22.0832 19.719 22.0832 19.1667C22.0832 18.6145 21.6355 18.1667 21.0832 18.1667V20.1667ZM13.4165 20.1667H21.0832V18.1667H13.4165V20.1667Z" fill="#09335E"/>
<path d="M38.3335 38.3333V39.3333C38.8858 39.3333 39.3335 38.8856 39.3335 38.3333H38.3335ZM26.8335 38.3333H25.8335C25.8335 38.8856 26.2812 39.3333 26.8335 39.3333V38.3333ZM28.7502 18.25H36.4168V16.25H28.7502V18.25ZM37.3335 19.1667V38.3333H39.3335V19.1667H37.3335ZM38.3335 37.3333H26.8335V39.3333H38.3335V37.3333ZM27.8335 38.3333V19.1667H25.8335V38.3333H27.8335ZM36.4168 18.25C36.9231 18.25 37.3335 18.6604 37.3335 19.1667H39.3335C39.3335 17.5558 38.0277 16.25 36.4168 16.25V18.25ZM28.7502 16.25C27.1393 16.25 25.8335 17.5558 25.8335 19.1667H27.8335C27.8335 18.6604 28.2439 18.25 28.7502 18.25V16.25Z" fill="#09335E"/>
<path d="M13.4165 12.4167C12.8642 12.4167 12.4165 12.8645 12.4165 13.4167C12.4165 13.969 12.8642 14.4167 13.4165 14.4167L13.4165 12.4167ZM21.0832 14.4167C21.6355 14.4167 22.0832 13.969 22.0832 13.4167C22.0832 12.8645 21.6355 12.4167 21.0832 12.4167V14.4167ZM13.4165 14.4167L21.0832 14.4167V12.4167L13.4165 12.4167L13.4165 14.4167Z" fill="#09335E"/>
<path d="M26.8332 38.3333V39.3333C27.3855 39.3333 27.8332 38.8856 27.8332 38.3333H26.8332ZM7.6665 38.3333H6.6665C6.6665 38.8856 7.11422 39.3333 7.6665 39.3333V38.3333ZM9.58317 6.75H24.9165V4.75H9.58317V6.75ZM25.8332 7.66667V38.3333H27.8332V7.66667H25.8332ZM26.8332 37.3333H7.6665V39.3333H26.8332V37.3333ZM8.6665 38.3333V7.66667H6.6665V38.3333H8.6665ZM24.9165 6.75C25.4228 6.75 25.8332 7.16041 25.8332 7.66667H27.8332C27.8332 6.05584 26.5273 4.75 24.9165 4.75V6.75ZM9.58317 4.75C7.97234 4.75 6.6665 6.05584 6.6665 7.66667H8.6665C8.6665 7.16041 9.07691 6.75 9.58317 6.75V4.75Z" fill="#09335E"/>
</svg>
