<svg width="42" height="42" viewBox="0 0 42 42" fill="none" xmlns="http://www.w3.org/2000/svg">
<g clip-path="url(#clip0_111_619)">
<g filter="url(#filter0_d_111_619)">
<path d="M36.75 21C36.75 29.6985 29.6985 36.75 21 36.75C17.9006 36.75 15.0104 35.8548 12.5737 34.3088L5.25 36.75L7.69123 29.4263C6.14524 26.9896 5.25 24.0994 5.25 21C5.25 12.3015 12.3015 5.25 21 5.25C29.6985 5.25 36.75 12.3015 36.75 21Z" fill="#09335E"/>
<path d="M12.5737 34.3088L13.1094 33.4644C12.8556 33.3033 12.5427 33.265 12.2575 33.3601L12.5737 34.3088ZM5.25 36.75L4.30132 36.4338C4.18154 36.7931 4.27506 37.1893 4.54289 37.4571C4.81073 37.7249 5.20689 37.8185 5.56623 37.6987L5.25 36.75ZM7.69123 29.4263L8.63991 29.7425C8.73499 29.4573 8.69669 29.1444 8.53562 28.8906L7.69123 29.4263ZM21 37.75C30.2508 37.75 37.75 30.2508 37.75 21H35.75C35.75 29.1462 29.1462 35.75 21 35.75V37.75ZM12.038 35.1532C14.6301 36.7978 17.7054 37.75 21 37.75V35.75C18.0959 35.75 15.3907 34.9117 13.1094 33.4644L12.038 35.1532ZM12.2575 33.3601L4.93377 35.8013L5.56623 37.6987L12.8899 35.2575L12.2575 33.3601ZM6.19868 37.0662L8.63991 29.7425L6.74255 29.1101L4.30132 36.4338L6.19868 37.0662ZM4.25 21C4.25 24.2946 5.20222 27.3699 6.84684 29.962L8.53562 28.8906C7.08826 26.6093 6.25 23.9041 6.25 21H4.25ZM21 4.25C11.7492 4.25 4.25 11.7492 4.25 21H6.25C6.25 12.8538 12.8538 6.25 21 6.25V4.25ZM37.75 21C37.75 11.7492 30.2508 4.25 21 4.25V6.25C29.1462 6.25 35.75 12.8538 35.75 21H37.75Z" fill="#09335E"/>
</g>
<path d="M28 21V20C27.4477 20 27 20.4477 27 21H28ZM28.0035 21H29.0035C29.0035 20.4477 28.5558 20 28.0035 20V21ZM28.0035 21.0035V22.0035C28.5558 22.0035 29.0035 21.5558 29.0035 21.0035H28.0035ZM28 21.0035H27C27 21.5558 27.4477 22.0035 28 22.0035V21.0035ZM28 22H28.0035V20H28V22ZM27.0035 21V21.0035H29.0035V21H27.0035ZM28.0035 20.0035H28V22.0035H28.0035V20.0035ZM29 21.0035V21H27V21.0035H29Z" fill="#FAFAFA"/>
<path d="M21 21H21.0035V21.0035H21V21Z" stroke="#FAFAFA" stroke-width="2" stroke-linecap="round" stroke-linejoin="round"/>
<path d="M14 21H14.0035V21.0035H14V21Z" stroke="#FAFAFA" stroke-width="2" stroke-linecap="round" stroke-linejoin="round"/>
</g>
<defs>
<filter id="filter0_d_111_619" x="0.25" y="2.25" width="41.5" height="41.5" filterUnits="userSpaceOnUse" color-interpolation-filters="sRGB">
<feFlood flood-opacity="0" result="BackgroundImageFix"/>
<feColorMatrix in="SourceAlpha" type="matrix" values="0 0 0 0 0 0 0 0 0 0 0 0 0 0 0 0 0 0 127 0" result="hardAlpha"/>
<feOffset dy="2"/>
<feGaussianBlur stdDeviation="2"/>
<feComposite in2="hardAlpha" operator="out"/>
<feColorMatrix type="matrix" values="0 0 0 0 0.0352941 0 0 0 0 0.2 0 0 0 0 0.368627 0 0 0 0.1 0"/>
<feBlend mode="normal" in2="BackgroundImageFix" result="effect1_dropShadow_111_619"/>
<feBlend mode="normal" in="SourceGraphic" in2="effect1_dropShadow_111_619" result="shape"/>
</filter>
<clipPath id="clip0_111_619">
<rect width="42" height="42" fill="white"/>
</clipPath>
</defs>
</svg>
