<svg width="24" height="24" viewBox="0 0 24 24" fill="none" xmlns="http://www.w3.org/2000/svg">
<path d="M7.70711 11.2935C7.31658 10.903 6.68342 10.903 6.29289 11.2935C5.90237 11.684 5.90237 12.3172 6.29289 12.7077L7.70711 11.2935ZM11.9497 16.9504L11.2426 17.6575C11.4302 17.845 11.6845 17.9504 11.9497 17.9504C12.215 17.9504 12.4693 17.845 12.6569 17.6575L11.9497 16.9504ZM23.2635 7.05086C23.654 6.66033 23.654 6.02717 23.2635 5.63664C22.8729 5.24612 22.2398 5.24612 21.8492 5.63664L23.2635 7.05086ZM6.29289 12.7077L11.2426 17.6575L12.6569 16.2432L7.70711 11.2935L6.29289 12.7077ZM12.6569 17.6575L23.2635 7.05086L21.8492 5.63664L11.2426 16.2432L12.6569 17.6575Z" fill="#F04C4C"/>
<path d="M2.75789 11.3433C2.36736 10.9528 1.7342 10.9528 1.34367 11.3433C0.95315 11.7338 0.95315 12.367 1.34367 12.7575L2.75789 11.3433ZM6.29342 17.7073C6.68395 18.0978 7.31711 18.0978 7.70764 17.7073C8.09816 17.3167 8.09816 16.6836 7.70764 16.293L6.29342 17.7073ZM11.5967 10.9897C11.2062 11.3803 11.2062 12.0134 11.5967 12.404C11.9872 12.7945 12.6204 12.7945 13.0109 12.404L11.5967 10.9897ZM18.3142 7.10066C18.7048 6.71014 18.7048 6.07697 18.3142 5.68645C17.9237 5.29592 17.2905 5.29592 16.9 5.68645L18.3142 7.10066ZM1.34367 12.7575L6.29342 17.7073L7.70764 16.293L2.75789 11.3433L1.34367 12.7575ZM13.0109 12.404L18.3142 7.10066L16.9 5.68645L11.5967 10.9897L13.0109 12.404Z" fill="#F04C4C"/>
</svg>
