<svg width="60" height="60" viewBox="0 0 60 60" fill="none" xmlns="http://www.w3.org/2000/svg">
<circle cx="30" cy="30" r="30" fill="#95CD7B" fill-opacity="0.5"/>
<path d="M35.3338 30C39.0138 30 42.0005 27.0133 42.0005 23.3333C42.0005 19.6533 39.0138 16.6666 35.3338 16.6666C31.6538 16.6666 28.6672 19.6533 28.6672 23.3333C28.6672 27.0133 31.6538 30 35.3338 30ZM42.6005 37.4666C42.0805 36.9333 41.4272 36.6666 40.6672 36.6666H31.3338L28.5605 35.6933L29.0005 34.44L31.3338 35.3333H35.0672C35.5338 35.3333 35.9072 35.1466 36.2138 34.84C36.5205 34.5333 36.6672 34.16 36.6672 33.7466C36.6672 33.0266 36.3205 32.5333 35.6272 32.2533L25.9338 28.6666H23.3338V40.6666L32.6672 43.3333L43.3738 39.3333C43.3872 38.6266 43.1205 38 42.6005 37.4666ZM20.6672 28.6666H15.3125V43.3333H20.6672V28.6666Z" fill="#09335E"/>
</svg>
