<svg width="110" height="115" viewBox="0 0 110 115" fill="none" xmlns="http://www.w3.org/2000/svg">
<path d="M90.4802 105.327C92.9174 101.171 93.8438 96.9953 93.9383 92.8176C102.093 83.0283 106.578 70.4811 106.563 57.5C106.563 27.7258 83.4797 3.59375 55 3.59375C26.5203 3.59375 3.43754 27.7258 3.43754 57.5C3.42278 70.4802 7.90701 83.0263 16.06 92.8158C16.1528 96.9755 17.0741 101.135 19.4889 105.279C12.9886 105.741 8.59379 106.618 8.59379 107.624C8.59379 109.112 18.1913 110.319 30.0283 110.319C34.6999 110.319 39.0139 110.13 42.5322 109.811C46.5249 110.846 50.6997 111.406 55 111.406C57.0385 111.406 59.046 111.27 61.0191 111.029C65.3521 111.27 70.2918 111.406 75.5408 111.406C92.675 111.406 106.563 109.956 106.563 108.166C106.563 106.943 100.064 105.879 90.4802 105.327ZM55 8.08594C81.0649 8.08594 102.266 30.2522 102.266 57.5C102.266 68.1752 99 78.0616 93.4743 86.1494C92.0168 76.3097 87.8144 66.4844 89.3991 56.8298C89.8855 56.0715 90.3564 55.2647 90.793 54.4004C91.1522 53.6816 90.2086 53.3582 89.0571 52.5406C81.7953 58.5062 70.0494 57.9564 63.4632 52.5442C62.3116 53.3582 61.3714 53.6816 61.7272 54.4004C65.5136 61.8718 71.3041 65.3973 77.0052 65.0559C76.2764 76.5073 83.93 86.8843 81.4808 98.4113C73.6712 103.962 64.4435 106.925 55 106.914C45.5554 106.926 36.3266 103.961 28.5175 98.4077C26.0683 86.8861 33.7236 76.5073 32.9949 65.0559C38.696 65.3973 44.4899 61.8718 48.2763 54.4004C48.6321 53.6816 47.6919 53.3582 46.5403 52.5406C39.2786 58.5062 27.531 57.9564 20.9447 52.5442C19.7932 53.3582 18.853 53.6816 19.2088 54.4004C19.6471 55.2629 20.1146 56.0715 20.6027 56.8316C22.1857 66.4844 17.9833 76.3079 16.5241 86.1476C10.8006 77.7944 7.72653 67.7752 7.73441 57.5C7.73441 30.2522 28.9369 8.08594 55 8.08594Z" fill="#F04C4C"/>
<path d="M33.1085 82.6562C31.8297 86.1062 33.6585 91.6406 33.6585 91.6406C35.9444 98.6178 35.623 100.625 54.9985 100.625C74.3516 100.625 74.0526 98.6178 76.3368 91.6406C76.3368 91.6406 78.169 86.1062 76.8902 82.6562C74.4926 76.2 68.6763 71.875 54.9951 71.875C41.3224 71.875 35.5027 76.2 33.1085 82.6562ZM39.8701 79.3643C39.8701 79.3643 43.3247 75.4687 54.9968 75.4687C66.6722 75.4687 70.1304 79.3643 70.1304 79.3643C70.4157 79.686 70.5463 80.3293 70.4226 80.7964L70.1579 81.8081C70.0358 82.2735 69.6302 82.6562 69.2572 82.6562H40.7397C40.3668 82.6562 39.9646 82.2735 39.8408 81.8063L39.5761 80.7946C39.4541 80.3293 39.5882 79.686 39.8701 79.3643ZM89.7843 44.2462C91.0097 44.1168 90.4563 40.2158 89.4457 40.3272C85.8646 40.6656 82.2562 40.1743 78.8775 38.8882C75.4988 37.602 72.4329 35.5528 69.8983 32.8864C69.1936 32.1245 66.3663 34.7389 67.2257 35.6589C70.15 38.7371 73.688 41.1028 77.5874 42.5871C81.4868 44.0715 85.6514 44.638 89.7843 44.2462ZM20.2076 44.248C24.3406 44.6388 28.5052 44.0722 32.4049 42.5885C36.3045 41.1049 39.8434 38.7407 42.7696 35.6643C43.6255 34.7371 40.8016 32.1227 40.1004 32.8882C37.5644 35.5541 34.4976 37.6028 31.1181 38.8886C27.7386 40.1744 24.1296 40.6656 20.5479 40.3272C19.5424 40.2122 18.9855 44.115 20.2076 44.248Z" fill="#F04C4C"/>
</svg>
