<svg width="100" height="100" viewBox="0 0 100 100" fill="none" xmlns="http://www.w3.org/2000/svg">
<path d="M53.6089 14.5833L50.5778 16.3333V16.3333L53.6089 14.5833ZM89.6933 77.0833L86.6622 78.8333L89.6933 77.0833ZM10.3076 77.0833L13.3387 78.8333H13.3387L10.3076 77.0833ZM46.392 14.5833L49.4231 16.3333V16.3333L46.392 14.5833ZM50.5778 16.3333L86.6622 78.8333L92.7243 75.3333L56.64 12.8333L50.5778 16.3333ZM86.0848 79.8333H13.916V86.8333H86.0848V79.8333ZM13.3387 78.8333L49.4231 16.3333L43.3609 12.8333L7.27652 75.3333L13.3387 78.8333ZM13.916 79.8333C13.4028 79.8333 13.0821 79.2778 13.3387 78.8333L7.27652 75.3333C4.32562 80.4444 8.01424 86.8333 13.916 86.8333V79.8333ZM86.6622 78.8333C86.9188 79.2778 86.598 79.8333 86.0848 79.8333V86.8333C91.9866 86.8333 95.6752 80.4445 92.7243 75.3333L86.6622 78.8333ZM56.64 12.8333C53.6891 7.72222 46.3118 7.72223 43.3609 12.8333L49.4231 16.3333C49.6797 15.8889 50.3212 15.8889 50.5778 16.3333L56.64 12.8333Z" fill="#F04C4C"/>
<path d="M49.793 66.6665V64.1665C48.4123 64.1665 47.293 65.2858 47.293 66.6665H49.793ZM50.2096 66.6665H52.7096C52.7096 65.2858 51.5903 64.1665 50.2096 64.1665V66.6665ZM50.2096 67.0832V69.5832C51.5903 69.5832 52.7096 68.4639 52.7096 67.0832H50.2096ZM49.793 67.0832H47.293C47.293 68.4639 48.4123 69.5832 49.793 69.5832V67.0832ZM49.793 69.1665H50.2096V64.1665H49.793V69.1665ZM47.7096 66.6665V67.0832H52.7096V66.6665H47.7096ZM50.2096 64.5832H49.793V69.5832H50.2096V64.5832ZM52.293 67.0832V66.6665H47.293V67.0832H52.293Z" fill="#F04C4C"/>
<path d="M52.5 37.5C52.5 36.1193 51.3807 35 50 35C48.6193 35 47.5 36.1193 47.5 37.5H52.5ZM47.5 54.1667C47.5 55.5474 48.6193 56.6667 50 56.6667C51.3807 56.6667 52.5 55.5474 52.5 54.1667H47.5ZM47.5 37.5V54.1667H52.5V37.5H47.5Z" fill="#F04C4C"/>
</svg>
