<svg width="24" height="24" viewBox="0 0 24 24" fill="none" xmlns="http://www.w3.org/2000/svg">
<path d="M19 19C18.4477 19 18 19.4477 18 20C18 20.5523 18.4477 21 19 21V19ZM20 21C20.5523 21 21 20.5523 21 20C21 19.4477 20.5523 19 20 19V21ZM19 21H20V19H19V21Z" fill="#FAFAFA"/>
<path d="M14 19C13.4477 19 13 19.4477 13 20C13 20.5523 13.4477 21 14 21V19ZM16 21C16.5523 21 17 20.5523 17 20C17 19.4477 16.5523 19 16 19V21ZM14 21H16V19H14V21Z" fill="#FAFAFA"/>
<path d="M17 16C16.4477 16 16 16.4477 16 17C16 17.5523 16.4477 18 17 18L17 16ZM20 18C20.5523 18 21 17.5523 21 17C21 16.4477 20.5523 16 20 16V18ZM17 18L20 18V16L17 16L17 18Z" fill="#FAFAFA"/>
<path d="M15 17C15 16.4477 14.5523 16 14 16C13.4477 16 13 16.4477 13 17L15 17ZM13 20C13 20.5523 13.4477 21 14 21C14.5523 21 15 20.5523 15 20H13ZM13 17L13 20H15L15 17L13 17Z" fill="#FAFAFA"/>
<path d="M21 14C21 13.4477 20.5523 13 20 13C19.4477 13 19 13.4477 19 14L21 14ZM19 17C19 17.5523 19.4477 18 20 18C20.5523 18 21 17.5523 21 17H19ZM19 14L19 17H21L21 14L19 14Z" fill="#FAFAFA"/>
<path d="M19 13C18.4477 13 18 13.4477 18 14C18 14.5523 18.4477 15 19 15L19 13ZM20 15C20.5523 15 21 14.5523 21 14C21 13.4477 20.5523 13 20 13L20 15ZM19 15L20 15L20 13L19 13L19 15Z" fill="#FAFAFA"/>
<path d="M14 13C13.4477 13 13 13.4477 13 14C13 14.5523 13.4477 15 14 15V13ZM16 15C16.5523 15 17 14.5523 17 14C17 13.4477 16.5523 13 16 13V15ZM14 15H16V13H14V15Z" fill="#FAFAFA"/>
<path d="M5 15H9V13H5V15ZM9 15V19H11V15H9ZM9 19H5V21H9V19ZM5 19V15H3V19H5ZM5 19H5H3C3 20.1046 3.89543 21 5 21V19ZM9 19V21C10.1046 21 11 20.1046 11 19H9ZM9 15V15H11C11 13.8954 10.1046 13 9 13V15ZM5 13C3.89543 13 3 13.8954 3 15H5V15V13Z" fill="#FAFAFA"/>
<path d="M15 5H19V3H15V5ZM19 5V9H21V5H19ZM19 9H15V11H19V9ZM15 9V5H13V9H15ZM15 9H15H13C13 10.1046 13.8954 11 15 11V9ZM19 9V11C20.1046 11 21 10.1046 21 9H19ZM19 5V5H21C21 3.89543 20.1046 3 19 3V5ZM15 3C13.8954 3 13 3.89543 13 5H15V5V3Z" fill="#FAFAFA"/>
<path d="M5 5H9V3H5V5ZM9 5V9H11V5H9ZM9 9H5V11H9V9ZM5 9V5H3V9H5ZM5 9H5H3C3 10.1046 3.89543 11 5 11V9ZM9 9V11C10.1046 11 11 10.1046 11 9H9ZM9 5V5H11C11 3.89543 10.1046 3 9 3V5ZM5 3C3.89543 3 3 3.89543 3 5H5V5V3Z" fill="#FAFAFA"/>
</svg>
