<svg width="24" height="24" viewBox="0 0 24 24" fill="none" xmlns="http://www.w3.org/2000/svg">
<path d="M4 19C3.44772 19 3 19.4477 3 20C3 20.5523 3.44772 21 4 21V19ZM20 21C20.5523 21 21 20.5523 21 20C21 19.4477 20.5523 19 20 19V21ZM4 21H20V19H4V21Z" fill="#09335E"/>
<path d="M8 19.9998V20.9998C8.26522 20.9998 8.51957 20.8945 8.70711 20.707L8 19.9998ZM4 19.9998H3C3 20.5521 3.44772 20.9998 4 20.9998V19.9998ZM4 15.9998L3.29289 15.2927C3.10536 15.4803 3 15.7346 3 15.9998H4ZM15.2929 4.70696L16 5.41406L16 5.41406L15.2929 4.70696ZM16.7071 4.70696L16 5.41406L16 5.41406L16.7071 4.70696ZM19.2929 7.29274L20 6.58564V6.58564L19.2929 7.29274ZM19.2929 8.70696L18.5858 7.99985L19.2929 8.70696ZM8 18.9998H4V20.9998H8V18.9998ZM5 19.9998V15.9998H3V19.9998H5ZM4.70711 16.707L16 5.41406L14.5858 3.99985L3.29289 15.2927L4.70711 16.707ZM16 5.41406L18.5858 7.99985L20 6.58564L17.4142 3.99985L16 5.41406ZM18.5858 7.99985L7.29289 19.2927L8.70711 20.707L20 9.41406L18.5858 7.99985ZM18.5858 7.99985V7.99985L20 9.41406C20.781 8.63302 20.781 7.36669 20 6.58564L18.5858 7.99985ZM16 5.41406H16L17.4142 3.99985C16.6332 3.2188 15.3668 3.2188 14.5858 3.99985L16 5.41406Z" fill="#09335E"/>
<path d="M12.7071 7.29289C12.3166 6.90237 11.6834 6.90237 11.2929 7.29289C10.9024 7.68342 10.9024 8.31658 11.2929 8.70711L12.7071 7.29289ZM15.2929 12.7071C15.6834 13.0976 16.3166 13.0976 16.7071 12.7071C17.0976 12.3166 17.0976 11.6834 16.7071 11.2929L15.2929 12.7071ZM11.2929 8.70711L15.2929 12.7071L16.7071 11.2929L12.7071 7.29289L11.2929 8.70711Z" fill="#09335E"/>
</svg>
