<svg width="24" height="24" viewBox="0 0 24 24" fill="none" xmlns="http://www.w3.org/2000/svg">
<path d="M19.97 21.385L16.614 18.029C15.166 18.689 13.591 19.02 12 19.002C10.36 19.022 8.737 18.668 7.254 17.967C6.10467 17.4063 5.07262 16.6318 4.213 15.685C3.30047 14.7069 2.58328 13.5634 2.1 12.316L2 12.002L2.105 11.686C2.82781 9.84231 4.04426 8.23318 5.621 7.03501L3 4.41401L4.413 3.00201L21.382 19.971L19.972 21.385H19.97ZM7.036 8.45101C5.75792 9.34693 4.74865 10.5747 4.117 12.002C4.77892 13.5292 5.8843 14.8223 7.28986 15.7139C8.69542 16.6054 10.3364 17.0541 12 17.002C13.0498 17.0106 14.0936 16.8416 15.087 16.502L13.287 14.702C12.887 14.898 12.447 15.001 12 15.002C11.2059 14.997 10.4457 14.6794 9.88418 14.1178C9.32265 13.5563 9.00498 12.7961 9 12.002C9 11.555 9.103 11.114 9.3 10.712L7.036 8.45101ZM19.852 15.612L18.46 14.221C19.0456 13.5589 19.5256 12.8105 19.883 12.002C19.222 10.4742 18.1168 9.18041 16.711 8.28876C15.3053 7.39711 13.6639 6.94879 12 7.00201C11.753 7.00201 11.505 7.01101 11.265 7.02801L9.5 5.26101C10.322 5.08501 11.16 4.99801 12 5.00201C13.64 4.98201 15.263 5.33601 16.746 6.03701C17.896 6.59701 18.927 7.37201 19.787 8.31901C20.6991 9.29598 21.4163 10.4381 21.9 11.684L22 12.002L21.895 12.318C21.4268 13.5361 20.7342 14.6555 19.853 15.618L19.852 15.612Z" fill="#09335E" fill-opacity="0.4"/>
<path d="M6.0924 6.56361L3.94298 4.41418L4.41283 3.94466L20.4399 19.9717L19.9703 20.4425L17.0854 17.5576L16.7584 17.2306L16.3375 17.4224C14.9791 18.0416 13.5011 18.3523 12.0075 18.3354L11.9997 18.3353L11.9919 18.3354C10.4545 18.3541 8.93309 18.0226 7.54261 17.366C6.47083 16.8426 5.50838 16.12 4.70658 15.2369L4.70663 15.2368L4.70047 15.2302C3.85046 14.3191 3.18142 13.2548 2.72893 12.0939L2.70105 12.0064L2.73201 11.9132C3.41091 10.1902 4.54967 8.68643 6.02435 7.56581L6.63249 7.10369L6.0924 6.56361ZM19.8161 14.6337L19.3598 14.1777C19.812 13.5906 20.1925 12.9507 20.4927 12.2716L20.6106 12.0049L20.4949 11.7373C19.7807 10.0867 18.5868 8.68906 17.0681 7.72579C15.5524 6.76443 13.7832 6.28011 11.9894 6.33535C11.8344 6.3355 11.6792 6.33898 11.5256 6.34555L10.8992 5.71844C11.2638 5.68358 11.6301 5.66693 11.9968 5.66867V5.66877L12.0081 5.66863C13.5455 5.64988 15.0671 5.98144 16.4576 6.63808C17.5295 7.16058 18.4909 7.88349 19.2935 8.7672L19.2934 8.76725L19.2997 8.77396C20.149 9.68364 20.8178 10.7462 21.2707 11.9052L21.2994 11.9964L21.2673 12.093C20.9135 13.0092 20.4239 13.8655 19.8161 14.6337ZM7.50709 7.9793L7.11133 7.58406L6.65333 7.90511C5.27588 8.87069 4.18813 10.194 3.50736 11.7322L3.3892 11.9992L3.50532 12.2671C4.22035 13.9169 5.41443 15.3138 6.93278 16.2768C8.44738 17.2375 10.215 17.7223 12.0076 17.6688C13.1282 17.6765 14.2422 17.4953 15.3026 17.1328L16.3147 16.7869L15.5584 16.0306L13.7584 14.2306L13.4215 13.8937L12.9937 14.1034C12.6851 14.2545 12.3459 14.3341 12.0013 14.3353C11.3836 14.3307 10.7925 14.0833 10.3556 13.6464C9.91854 13.2094 9.67109 12.6179 9.66667 11.9999C9.66699 11.6561 9.74635 11.3162 9.89865 11.0054L10.1085 10.5772L9.77109 10.2403L7.50709 7.9793Z" stroke="#09335E" stroke-opacity="0.4" stroke-width="1.33333"/>
</svg>
