<svg width="60" height="60" viewBox="0 0 60 60" fill="none" xmlns="http://www.w3.org/2000/svg">
<circle cx="30" cy="30" r="30" fill="#91B4F2" fill-opacity="0.5"/>
<path opacity="0.2" d="M34 30C34 30.7911 33.7654 31.5645 33.3259 32.2223C32.8864 32.8801 32.2616 33.3928 31.5307 33.6955C30.7998 33.9983 29.9956 34.0775 29.2196 33.9231C28.4437 33.7688 27.731 33.3878 27.1716 32.8284C26.6122 32.269 26.2312 31.5563 26.0769 30.7804C25.9225 30.0044 26.0017 29.2002 26.3045 28.4693C26.6072 27.7384 27.1199 27.1136 27.7777 26.6741C28.4355 26.2346 29.2089 26 30 26C31.0609 26 32.0783 26.4214 32.8284 27.1716C33.5786 27.9217 34 28.9391 34 30ZM39 22C39.2117 23.2491 39.8067 24.4015 40.7026 25.2974C41.5985 26.1933 42.7509 26.7883 44 27V22H39ZM39 38H44V33C42.7509 33.2117 41.5985 33.8067 40.7026 34.7026C39.8067 35.5985 39.2117 36.7509 39 38ZM16 33V38H21C20.7883 36.7509 20.1933 35.5985 19.2974 34.7026C18.4015 33.8067 17.2491 33.2117 16 33ZM16 27C17.2491 26.7883 18.4015 26.1933 19.2974 25.2974C20.1933 24.4015 20.7883 23.2491 21 22H16V27Z" fill="#09335E"/>
<path d="M30 25C29.0111 25 28.0444 25.2932 27.2221 25.8427C26.3999 26.3921 25.759 27.173 25.3806 28.0866C25.0022 29.0002 24.9031 30.0055 25.0961 30.9755C25.289 31.9454 25.7652 32.8363 26.4645 33.5355C27.1637 34.2348 28.0546 34.711 29.0245 34.9039C29.9945 35.0969 30.9998 34.9978 31.9134 34.6194C32.827 34.241 33.6079 33.6001 34.1573 32.7779C34.7068 31.9556 35 30.9889 35 30C35 28.6739 34.4732 27.4021 33.5355 26.4645C32.5979 25.5268 31.3261 25 30 25ZM30 33C29.4067 33 28.8266 32.8241 28.3333 32.4944C27.8399 32.1648 27.4554 31.6962 27.2284 31.1481C27.0013 30.5999 26.9419 29.9967 27.0576 29.4147C27.1734 28.8328 27.4591 28.2982 27.8787 27.8787C28.2982 27.4591 28.8328 27.1734 29.4147 27.0576C29.9967 26.9419 30.5999 27.0013 31.1481 27.2284C31.6962 27.4554 32.1648 27.8399 32.4944 28.3333C32.8241 28.8266 33 29.4067 33 30C33 30.7956 32.6839 31.5587 32.1213 32.1213C31.5587 32.6839 30.7956 33 30 33ZM44 21H16C15.7348 21 15.4804 21.1054 15.2929 21.2929C15.1054 21.4804 15 21.7348 15 22V38C15 38.2652 15.1054 38.5196 15.2929 38.7071C15.4804 38.8946 15.7348 39 16 39H44C44.2652 39 44.5196 38.8946 44.7071 38.7071C44.8946 38.5196 45 38.2652 45 38V22C45 21.7348 44.8946 21.4804 44.7071 21.2929C44.5196 21.1054 44.2652 21 44 21ZM17 23H19.6712C19.1555 24.1995 18.1995 25.1555 17 25.6713V23ZM17 37V34.3288C18.1995 34.8445 19.1555 35.8005 19.6712 37H17ZM43 37H40.3288C40.8445 35.8005 41.8005 34.8445 43 34.3288V37ZM43 32.2062C41.8645 32.542 40.8311 33.1565 39.9938 33.9938C39.1565 34.8311 38.542 35.8645 38.2062 37H21.7937C21.458 35.8645 20.8435 34.8311 20.0062 33.9938C19.1689 33.1565 18.1355 32.542 17 32.2062V27.7937C18.1355 27.458 19.1689 26.8435 20.0062 26.0062C20.8435 25.1689 21.458 24.1355 21.7937 23H38.2062C38.542 24.1355 39.1565 25.1689 39.9938 26.0062C40.8311 26.8435 41.8645 27.458 43 27.7937V32.2062ZM43 25.6713C41.8005 25.1555 40.8445 24.1995 40.3288 23H43V25.6713Z" fill="#09335E"/>
</svg>
