<svg width="24" height="24" viewBox="0 0 24 24" fill="none" xmlns="http://www.w3.org/2000/svg">
<path d="M19.7071 7.29289L19 6.58579L19.7071 7.29289ZM14.2929 12.7071L15 13.4142L14.2929 12.7071ZM13.4472 19.2764L13 18.382H13L13.4472 19.2764ZM11.4472 20.2764L11.8944 21.1708H11.8944L11.4472 20.2764ZM9.70711 12.7071L9 13.4142L9 13.4142L9.70711 12.7071ZM4.29289 7.29289L3.58579 8L3.58579 8L4.29289 7.29289ZM5 5H19V3H5V5ZM19 5V6.58579H21V5H19ZM19 6.58579L13.5858 12L15 13.4142L20.4142 8L19 6.58579ZM13 13.4142V18.382H15V13.4142H13ZM13 18.382L11 19.382L11.8944 21.1708L13.8944 20.1708L13 18.382ZM11 19.382V13.4142H9V19.382H11ZM10.4142 12L5 6.58579L3.58579 8L9 13.4142L10.4142 12ZM5 6.58579V5H3V6.58579H5ZM5 6.58579H5H3C3 7.11622 3.21071 7.62493 3.58579 8L5 6.58579ZM11 13.4142C11 12.8838 10.7893 12.3751 10.4142 12L9 13.4142L9 13.4142H11ZM11 19.382L11 19.382H9C9 20.8687 10.5646 21.8357 11.8944 21.1708L11 19.382ZM13 18.382H13L13.8944 20.1708C14.572 19.832 15 19.1395 15 18.382H13ZM13.5858 12C13.2107 12.3751 13 12.8838 13 13.4142H15L15 13.4142L13.5858 12ZM19 6.58579L20.4142 8C20.7893 7.62493 21 7.11622 21 6.58579H19ZM19 5H21C21 3.89543 20.1046 3 19 3V5ZM5 3C3.89543 3 3 3.89543 3 5H5V5V3Z" fill="#09335E"/>
</svg>
