<svg width="193" height="116" viewBox="0 0 193 116" fill="none" xmlns="http://www.w3.org/2000/svg">
<path d="M87.8699 27.1243C58.668 39.0993 31.8192 56.4235 14.3268 83.5272C5.00172 97.9759 10.278 108.239 26.6071 112.737C48.2401 118.696 72.496 111.671 93.3163 105.678C120.066 97.9783 149.824 88.229 171.82 70.4523C190.032 55.7334 198.082 24.2439 173.242 11.7195C157.489 3.77638 138.703 4.62417 122.005 8.58988C90.1348 16.1588 59.5767 31.4106 32.9207 50.2835C26.0392 55.1558 -8.67422 78.2318 3.60753 91.6295C13.6719 102.608 43.6356 108.387 56.3006 105.678C95.325 97.3314 124.22 84.9601 157.975 63.1998C169.78 55.5895 212.509 12.8407 180.076 3.02609C163.151 -2.09572 143.253 3.43907 127.243 9.14626C95.8928 20.322 68.701 38.5074 41.0382 56.5428" stroke="#09335E" stroke-width="2" stroke-linecap="round"/>
</svg>
