<svg width="60" height="60" viewBox="0 0 60 60" fill="none" xmlns="http://www.w3.org/2000/svg">
<circle cx="30" cy="30" r="30" fill="#E6BFCE" fill-opacity="0.5"/>
<path d="M20.668 24.6666H23.3346V35.3333H20.668V24.6666ZM30.0013 24.6666H26.0013C25.268 24.6666 24.668 25.2666 24.668 26V34C24.668 34.7333 25.268 35.3333 26.0013 35.3333H30.0013C30.7346 35.3333 31.3346 34.7333 31.3346 34V26C31.3346 25.2666 30.7346 24.6666 30.0013 24.6666ZM28.668 32.6666H27.3346V27.3333H28.668V32.6666ZM38.0013 24.6666H34.0013C33.268 24.6666 32.668 25.2666 32.668 26V34C32.668 34.7333 33.268 35.3333 34.0013 35.3333H38.0013C38.7346 35.3333 39.3346 34.7333 39.3346 34V26C39.3346 25.2666 38.7346 24.6666 38.0013 24.6666ZM36.668 32.6666H35.3346V27.3333H36.668V32.6666Z" fill="#09335E"/>
<path d="M16.668 19.3334V40.6667H43.3346V19.3334H16.668ZM19.3346 38V22H40.668V38H19.3346Z" fill="#09335E"/>
</svg>
