<svg width="24" height="24" viewBox="0 0 24 24" fill="none" xmlns="http://www.w3.org/2000/svg">
<path d="M8.46477 14.1216C8.07424 14.5121 8.07424 15.1453 8.46477 15.5358C8.85529 15.9264 9.48846 15.9264 9.87898 15.5358L8.46477 14.1216ZM15.5358 9.87898C15.9264 9.48846 15.9264 8.85529 15.5358 8.46477C15.1453 8.07424 14.5121 8.07424 14.1216 8.46477L15.5358 9.87898ZM9.87898 15.5358L15.5358 9.87898L14.1216 8.46477L8.46477 14.1216L9.87898 15.5358Z" fill="#09335E"/>
<path d="M7.75725 12.0001C8.14777 11.6096 8.14777 10.9764 7.75725 10.5859C7.36672 10.1953 6.73356 10.1953 6.34303 10.5859L7.75725 12.0001ZM13.4141 17.6569C13.8046 17.2664 13.8046 16.6332 13.4141 16.2427C13.0236 15.8522 12.3904 15.8522 11.9999 16.2427L13.4141 17.6569ZM6.34303 10.5859L4.92882 12.0001L6.34304 13.4143L7.75725 12.0001L6.34303 10.5859ZM11.9999 19.0711L13.4141 17.6569L11.9999 16.2427L10.5857 17.6569L11.9999 19.0711ZM4.92882 19.0711C6.88144 21.0238 10.0473 21.0238 11.9999 19.0711L10.5857 17.6569C9.4141 18.8285 7.51461 18.8285 6.34304 17.6569L4.92882 19.0711ZM4.92882 12.0001C2.9762 13.9527 2.9762 17.1185 4.92882 19.0711L6.34304 17.6569C5.17146 16.4854 5.17146 14.5859 6.34304 13.4143L4.92882 12.0001Z" fill="#09335E"/>
<path d="M10.5859 6.34352C10.1953 6.73405 10.1953 7.36721 10.5859 7.75774C10.9764 8.14826 11.6096 8.14826 12.0001 7.75774L10.5859 6.34352ZM16.2427 12.0004C15.8522 12.3909 15.8522 13.0241 16.2427 13.4146C16.6332 13.8051 17.2664 13.8051 17.6569 13.4146L16.2427 12.0004ZM12.0001 7.75774L13.4143 6.34352L12.0001 4.92931L10.5859 6.34352L12.0001 7.75774ZM17.6569 10.5862L16.2427 12.0004L17.6569 13.4146L19.0711 12.0004L17.6569 10.5862ZM17.6569 6.34352C18.8285 7.5151 18.8285 9.41459 17.6569 10.5862L19.0711 12.0004C21.0238 10.0478 21.0238 6.88193 19.0711 4.92931L17.6569 6.34352ZM13.4143 6.34352C14.5859 5.17195 16.4854 5.17195 17.6569 6.34352L19.0711 4.92931C17.1185 2.97669 13.9527 2.97669 12.0001 4.92931L13.4143 6.34352Z" fill="#09335E"/>
</svg>
