<svg width="44" height="44" viewBox="0 0 44 44" fill="none" xmlns="http://www.w3.org/2000/svg">
<path d="M39.6667 16C39.6667 16.7364 40.2636 17.3333 41 17.3333C41.7364 17.3333 42.3333 16.7364 42.3333 16V3.5C42.3333 2.76362 41.7364 2.16667 41 2.16667C40.2636 2.16667 39.6667 2.76362 39.6667 3.5V16ZM16 42.3333C16.7364 42.3333 17.3333 41.7364 17.3333 41C17.3333 40.2636 16.7364 39.6667 16 39.6667H3.5C2.76362 39.6667 2.16667 40.2636 2.16667 41C2.16667 41.7364 2.76362 42.3333 3.5 42.3333H16ZM15.2761 13.3905C14.7554 12.8698 13.9112 12.8698 13.3905 13.3905C12.8698 13.9112 12.8698 14.7554 13.3905 15.2761L22.3489 24.2345C22.8696 24.7552 23.7138 24.7552 24.2345 24.2345C24.7552 23.7138 24.7552 22.8696 24.2345 22.3489L15.2761 13.3905Z" stroke="#09335E" stroke-width="2.66667" stroke-linecap="round" stroke-linejoin="round"/>
</svg>
