<svg width="62" height="62" viewBox="0 0 62 62" fill="none" xmlns="http://www.w3.org/2000/svg">
<path d="M49.0835 54.25V57.25V54.25ZM12.9168 54.25L12.9168 51.25L12.9168 54.25ZM10.3335 51.6667H7.3335H10.3335ZM10.3335 25.8333L13.3335 25.8333L10.3335 25.8333ZM12.9168 23.25L12.9168 26.25L12.9168 23.25ZM49.0835 23.25V26.25V23.25ZM51.6668 25.8333L48.6668 25.8333L51.6668 25.8333ZM51.6668 51.6667L54.6668 51.6667L51.6668 51.6667ZM49.0835 51.25L12.9168 51.25L12.9168 57.25L49.0835 57.25V51.25ZM13.3335 51.6667L13.3335 25.8333L7.3335 25.8333L7.3335 51.6667H13.3335ZM12.9168 26.25L49.0835 26.25V20.25L12.9168 20.25L12.9168 26.25ZM48.6668 25.8333L48.6668 51.6667L54.6668 51.6667L54.6668 25.8333L48.6668 25.8333ZM49.0835 26.25C48.8534 26.25 48.6668 26.0635 48.6668 25.8333L54.6668 25.8333C54.6668 22.7497 52.1671 20.25 49.0835 20.25V26.25ZM13.3335 25.8333C13.3335 26.0635 13.1469 26.25 12.9168 26.25L12.9168 20.25C9.83324 20.25 7.3335 22.7497 7.3335 25.8333L13.3335 25.8333ZM12.9168 51.25C13.147 51.25 13.3335 51.4366 13.3335 51.6667H7.3335C7.3335 54.7503 9.83324 57.25 12.9168 57.25L12.9168 51.25ZM49.0835 57.25C52.1671 57.25 54.6668 54.7503 54.6668 51.6667L48.6668 51.6667C48.6668 51.4366 48.8534 51.25 49.0835 51.25V57.25Z" fill="#FAFAFA"/>
<path d="M38.1538 23.25V20.25H38.1538L38.1538 23.25ZM23.8462 23.25L23.8462 26.25H23.8462L23.8462 23.25ZM23.25 22.6538L20.25 22.6538L23.25 22.6538ZM23.25 15.5L26.25 15.5L23.25 15.5ZM38.75 15.5H35.75V15.5L38.75 15.5ZM38.75 22.6538H41.75H38.75ZM31 7.75V10.75V7.75ZM38.1538 20.25L23.8462 20.25L23.8462 26.25L38.1538 26.25L38.1538 20.25ZM26.25 22.6538L26.25 15.5L20.25 15.5L20.25 22.6538L26.25 22.6538ZM35.75 15.5L35.75 22.6538L41.75 22.6538L41.75 15.5L35.75 15.5ZM31 10.75C33.6234 10.75 35.75 12.8766 35.75 15.5L41.75 15.5C41.75 9.56294 36.9371 4.75 31 4.75L31 10.75ZM26.25 15.5C26.25 12.8766 28.3766 10.75 31 10.75L31 4.75C25.0629 4.75 20.25 9.56294 20.25 15.5L26.25 15.5ZM23.8462 20.25C25.1738 20.25 26.25 21.3263 26.25 22.6538L20.25 22.6538C20.25 24.6399 21.86 26.25 23.8462 26.25L23.8462 20.25ZM38.1538 26.25C40.1399 26.25 41.75 24.64 41.75 22.6538L35.75 22.6538C35.75 21.3262 36.8263 20.25 38.1538 20.25V26.25Z" fill="#FAFAFA"/>
</svg>
