<svg width="24" height="24" viewBox="0 0 24 24" fill="none" xmlns="http://www.w3.org/2000/svg">
<path d="M21 10.0006H22C22 9.69695 21.862 9.40976 21.625 9.21998L21 10.0006ZM3 10.0006L2.39685 9.20297C2.1469 9.39197 2 9.68722 2 10.0006H3ZM11.6364 3.46995L12.2396 4.26758V4.26758L11.6364 3.46995ZM12.8646 3.48696L13.4896 2.70634V2.70634L12.8646 3.48696ZM20 10.0006V20.0006H22V10.0006H20ZM20 20.0006H4V22.0006H20V20.0006ZM4 20.0006V10.0006H2V20.0006H4ZM3.60315 10.7982L12.2396 4.26758L11.0333 2.67232L2.39685 9.20297L3.60315 10.7982ZM12.2396 4.26758L20.375 10.7812L21.625 9.21998L13.4896 2.70634L12.2396 4.26758ZM12.2396 4.26758V4.26758L13.4896 2.70634C12.7751 2.13426 11.7634 2.12024 11.0333 2.67232L12.2396 4.26758ZM4 20.0006H4H2C2 21.1052 2.89543 22.0006 4 22.0006V20.0006ZM20 20.0006V22.0006C21.1046 22.0006 22 21.1052 22 20.0006H20Z" fill="#09335E"/>
<path d="M3.5439 9.16085C3.08044 8.86046 2.46123 8.99265 2.16085 9.4561C1.86046 9.91956 1.99265 10.5388 2.4561 10.8392L3.5439 9.16085ZM12.2571 16L11.7132 16.8392C12.0522 17.0588 12.49 17.0531 12.823 16.8245L12.2571 16ZM21.5658 10.8245C22.0212 10.512 22.137 9.88952 21.8245 9.43416C21.512 8.97879 20.8895 8.86298 20.4342 9.17549L21.5658 10.8245ZM2.4561 10.8392L11.7132 16.8392L12.801 15.1608L3.5439 9.16085L2.4561 10.8392ZM12.823 16.8245L21.5658 10.8245L20.4342 9.17549L11.6913 15.1755L12.823 16.8245Z" fill="#09335E"/>
</svg>
