<svg width="14" height="15" viewBox="0 0 14 15" fill="none" xmlns="http://www.w3.org/2000/svg">
<path d="M12.25 13.564V14.314H13V13.564H12.25ZM10.612 13.564L9.98587 13.9769L10.2082 14.314H10.612V13.564ZM4.02399 3.574L4.6501 3.1611L3.27399 1.07438V3.574H4.02399ZM4.02399 13.564V14.314H4.77399V13.564H4.02399ZM2.38599 13.564H1.63599V14.314H2.38599V13.564ZM2.38599 1V0.25H1.63599V1H2.38599ZM4.02399 1L4.64976 0.586585L4.42739 0.25H4.02399V1ZM10.612 10.972L9.98622 11.3854L11.362 13.4679V10.972H10.612ZM10.612 1V0.25H9.86199V1H10.612ZM12.25 1H13V0.25H12.25V1ZM12.25 12.814H10.612V14.314H12.25V12.814ZM11.2381 13.1511L4.6501 3.1611L3.39787 3.9869L9.98587 13.9769L11.2381 13.1511ZM3.27399 3.574V13.564H4.77399V3.574H3.27399ZM4.02399 12.814H2.38599V14.314H4.02399V12.814ZM3.13599 13.564V1H1.63599V13.564H3.13599ZM2.38599 1.75H4.02399V0.25H2.38599V1.75ZM3.39822 1.41341L9.98622 11.3854L11.2378 10.5586L4.64976 0.586585L3.39822 1.41341ZM11.362 10.972V1H9.86199V10.972H11.362ZM10.612 1.75H12.25V0.25H10.612V1.75ZM11.5 1V13.564H13V1H11.5ZM0 5.314H14V3.814H0V5.314ZM0 10.314H14V8.814H0V10.314Z" fill="#09335E"/>
</svg>
