<svg width="24" height="24" viewBox="0 0 24 24" fill="none" xmlns="http://www.w3.org/2000/svg">
<path d="M5 5H19V3H5V5ZM5 19V5H3V19H5ZM19 19H5V21H19V19ZM19 5V19H21V5H19ZM19 21C20.1046 21 21 20.1046 21 19H19V21ZM3 19C3 20.1046 3.89543 21 5 21V19H3ZM19 5H21C21 3.89543 20.1046 3 19 3V5ZM5 3C3.89543 3 3 3.89543 3 5H5V3Z" fill="#FAFAFA"/>
<path d="M12 10C11.4477 10 11 10.4477 11 11C11 11.5523 11.4477 12 12 12V10ZM16 12C16.5523 12 17 11.5523 17 11C17 10.4477 16.5523 10 16 10V12ZM12 12H16V10H12V12Z" fill="#FAFAFA"/>
<path d="M12 7C11.4477 7 11 7.44772 11 8C11 8.55228 11.4477 9 12 9V7ZM16 9C16.5523 9 17 8.55228 17 8C17 7.44772 16.5523 7 16 7V9ZM12 9H16V7H12V9Z" fill="#FAFAFA"/>
<path d="M7 20C7 20.5523 7.44772 21 8 21C8.55229 21 9 20.5523 9 20H7ZM9 4C9 3.44772 8.55228 3 8 3C7.44772 3 7 3.44772 7 4L9 4ZM9 20L9 4L7 4L7 20H9Z" fill="#FAFAFA"/>
</svg>
