<svg width="24" height="24" viewBox="0 0 24 24" fill="none" xmlns="http://www.w3.org/2000/svg">
<path d="M9 17V16C8.44772 16 8 16.4477 8 17H9ZM15 17H16C16 16.4477 15.5523 16 15 16V17ZM9 18H15V16H9V18ZM14 17V18H16V17H14ZM10 18V17H8V18H10ZM12 20C10.8954 20 10 19.1046 10 18H8C8 20.2091 9.79086 22 12 22V20ZM14 18C14 19.1046 13.1046 20 12 20V22C14.2091 22 16 20.2091 16 18H14Z" fill="#FAFAFA"/>
<path d="M21 6C21 8.20914 19.2091 10 17 10C14.7909 10 13 8.20914 13 6C13 3.79086 14.7909 2 17 2C19.2091 2 21 3.79086 21 6Z" stroke="#FAFAFA" stroke-width="2" stroke-linecap="round" stroke-linejoin="round"/>
<path d="M13.7548 4.26042C14.2831 4.42168 14.842 4.12421 15.0033 3.59599C15.1645 3.06777 14.867 2.50884 14.3388 2.34758L13.7548 4.26042ZM19.9774 9.40005C19.9354 8.84937 19.4549 8.43703 18.9042 8.47907C18.3535 8.52111 17.9412 9.0016 17.9832 9.55228L19.9774 9.40005ZM19.7071 14.7071L20.4144 14.0002L20.4142 14L19.7071 14.7071ZM4.29289 14.7071L3.5858 14L3.58565 14.0001L4.29289 14.7071ZM4.80372 14.1963L5.51081 14.9034L5.51088 14.9033L4.80372 14.1963ZM12 4C12.6121 4 13.201 4.09133 13.7548 4.26042L14.3388 2.34758C13.5978 2.12134 12.8122 2 12 2V4ZM17.9832 9.55228C17.9944 9.69864 18 9.84815 18 9.99998H20C20 9.79893 19.9926 9.59861 19.9774 9.40005L17.9832 9.55228ZM18 9.99998V13.7224H20V9.99998H18ZM18 13.7224C18 14.1654 18.176 14.5902 18.4892 14.9034L19.9034 13.4892C19.9652 13.551 20 13.6349 20 13.7224H18ZM18.4892 14.9034L19 15.4142L20.4142 14L19.9034 13.4892L18.4892 14.9034ZM18.9998 15.414L19 15.4142H21C21 14.8836 20.7891 14.3751 20.4144 14.0002L18.9998 15.414ZM19 15.4142V16H21V15.4142H19ZM19 16V18C20.1046 18 21 17.1046 21 16H19ZM19 16H5V18H19V16ZM5 16H3C3 17.1046 3.89545 18 5 18V16ZM5 16V15.4142H3V16H5ZM5 15.4142L5.00013 15.4141L3.58565 14.0001C3.21078 14.3751 3 14.8837 3 15.4142H5ZM4.99998 15.4142L5.51081 14.9034L4.09663 13.4892L3.5858 14L4.99998 15.4142ZM5.51088 14.9033C5.82402 14.5901 6 14.1654 6 13.7224H4C4 13.6349 4.03478 13.551 4.09656 13.4892L5.51088 14.9033ZM6 13.7224V9.99998H4V13.7224H6ZM6 9.99998C6 6.6863 8.68628 4 12 4V2C7.58172 2 4 5.58172 4 9.99998H6Z" fill="#FAFAFA"/>
</svg>
