<svg width="24" height="24" viewBox="0 0 24 24" fill="none" xmlns="http://www.w3.org/2000/svg">
<path d="M12 19C8.13401 19 5 15.866 5 12H3C3 16.9706 7.02944 21 12 21V19ZM19 12C19 15.866 15.866 19 12 19V21C16.9706 21 21 16.9706 21 12H19ZM12 5C15.866 5 19 8.13401 19 12H21C21 7.02944 16.9706 3 12 3V5ZM12 3C7.02944 3 3 7.02944 3 12H5C5 8.13401 8.13401 5 12 5V3Z" fill="#09335E"/>
<path d="M9 12C9 13.6569 10.3431 15 12 15C13.6569 15 15 13.6569 15 12C15 10.3431 13.6569 9 12 9C10.3431 9 9 10.3431 9 12Z" fill="#09335E"/>
<path d="M12 14C10.8954 14 10 13.1046 10 12H8C8 14.2091 9.79086 16 12 16V14ZM14 12C14 13.1046 13.1046 14 12 14V16C14.2091 16 16 14.2091 16 12H14ZM12 10C13.1046 10 14 10.8954 14 12H16C16 9.79086 14.2091 8 12 8V10ZM12 8C9.79086 8 8 9.79086 8 12H10C10 10.8954 10.8954 10 12 10V8Z" fill="#09335E"/>
</svg>
