<svg width="60" height="60" viewBox="0 0 60 60" fill="none" xmlns="http://www.w3.org/2000/svg">
<circle cx="30" cy="30" r="30" fill="#91B4F2" fill-opacity="0.5"/>
<path d="M27.332 32.6667C26.2209 32.6667 25.2765 32.2778 24.4987 31.5C23.7209 30.7223 23.332 29.7778 23.332 28.6667C23.332 28.1778 23.4098 27.7165 23.5654 27.2827C23.7209 26.8489 23.9543 26.4547 24.2654 26.1C24.1765 25.8778 24.1098 25.6445 24.0654 25.4C24.0209 25.1556 23.9987 24.9112 23.9987 24.6667C23.9987 23.8223 24.2267 23.072 24.6827 22.416C25.1387 21.76 25.7329 21.2774 26.4654 20.968C26.9098 20.4569 27.432 20.0569 28.032 19.768C28.632 19.4792 29.2876 19.3343 29.9987 19.3334C30.7098 19.3334 31.3654 19.4778 31.9654 19.7667C32.5654 20.0556 33.0876 20.4556 33.532 20.9667C34.2654 21.2778 34.86 21.7614 35.316 22.4174C35.772 23.0734 35.9996 23.8232 35.9987 24.6667C35.9987 24.9112 35.9765 25.1556 35.932 25.4C35.8876 25.6445 35.8209 25.8778 35.732 26.1C36.0431 26.4556 36.2765 26.8503 36.432 27.284C36.5876 27.7178 36.6654 28.1787 36.6654 28.6667C36.6654 29.7778 36.2765 30.7223 35.4987 31.5C34.7209 32.2778 33.7765 32.6667 32.6654 32.6667H27.332ZM19.332 43.3334V39.6C19.332 38.8445 19.5267 38.1503 19.916 37.5174C20.3054 36.8845 20.8218 36.4009 21.4654 36.0667C22.8431 35.3778 24.2431 34.8609 25.6654 34.516C27.0876 34.1712 28.532 33.9992 29.9987 34C31.4654 34 32.9098 34.1725 34.332 34.5174C35.7543 34.8623 37.1543 35.3787 38.532 36.0667C39.1765 36.4 39.6934 36.8836 40.0827 37.5174C40.472 38.1512 40.6663 38.8454 40.6654 39.6V43.3334H19.332Z" fill="#09335E"/>
</svg>
