<svg width="100" height="100" viewBox="0 0 100 100" fill="none" xmlns="http://www.w3.org/2000/svg">
<mask id="path-1-outside-1_145_3704" maskUnits="userSpaceOnUse" x="5.5" y="5.5" width="89" height="89" fill="black">
<rect fill="white" x="5.5" y="5.5" width="89" height="89"/>
<path d="M44.8096 14.4116C47.8005 11.8628 52.1995 11.8628 55.1904 14.4116L60.2778 18.747C61.5595 19.8393 63.1531 20.4994 64.8317 20.6333L71.4946 21.165C75.4118 21.4776 78.5224 24.5882 78.835 28.5054L79.3667 35.1683C79.5006 36.8469 80.1607 38.4405 81.253 39.7222L85.5884 44.8096C88.1372 47.8005 88.1372 52.1995 85.5884 55.1904L81.253 60.2778C80.1607 61.5595 79.5006 63.1531 79.3667 64.8317L78.835 71.4946C78.5224 75.4118 75.4118 78.5224 71.4946 78.835L64.8317 79.3667C63.1531 79.5006 61.5595 80.1607 60.2778 81.253L55.1904 85.5884C52.1995 88.1372 47.8005 88.1372 44.8096 85.5884L39.7222 81.253C38.4405 80.1607 36.8469 79.5006 35.1683 79.3667L28.5054 78.835C24.5882 78.5224 21.4776 75.4118 21.165 71.4946L20.6333 64.8317C20.4994 63.1531 19.8393 61.5595 18.747 60.2778L14.4116 55.1904C11.8628 52.1995 11.8628 47.8005 14.4116 44.8096L18.747 39.7222C19.8393 38.4405 20.4994 36.8469 20.6333 35.1683L21.165 28.5054C21.4776 24.5882 24.5882 21.4776 28.5054 21.165L35.1683 20.6333C36.8469 20.4994 38.4405 19.8393 39.7222 18.747L44.8096 14.4116Z"/>
</mask>
<path d="M35.1683 20.6333L34.6115 13.6555L35.1683 20.6333ZM39.7222 18.747L35.1819 13.4192V13.4192L39.7222 18.747ZM21.165 28.5054L28.1428 29.0623V29.0623L21.165 28.5054ZM28.5054 21.165L29.0623 28.1428H29.0623L28.5054 21.165ZM18.747 39.7222L13.4192 35.1819H13.4192L18.747 39.7222ZM20.6333 35.1683L13.6555 34.6115L20.6333 35.1683ZM14.4116 55.1904L9.08384 59.7308L14.4116 55.1904ZM14.4116 44.8096L19.7394 49.3499H19.7394L14.4116 44.8096ZM20.6333 64.8317L27.6111 64.2748L20.6333 64.8317ZM18.747 60.2778L24.0748 55.7375H24.0748L18.747 60.2778ZM28.5054 78.835L27.9486 85.8128L27.9486 85.8128L28.5054 78.835ZM21.165 71.4946L14.1872 72.0514L21.165 71.4946ZM39.7222 81.253L44.2625 75.9252H44.2625L39.7222 81.253ZM35.1683 79.3667L35.7252 72.3889H35.7252L35.1683 79.3667ZM55.1904 85.5884L59.7308 90.9162H59.7308L55.1904 85.5884ZM44.8096 85.5884L40.2692 90.9162H40.2692L44.8096 85.5884ZM64.8317 79.3667L64.2748 72.3889H64.2748L64.8317 79.3667ZM60.2778 81.253L55.7375 75.9252H55.7375L60.2778 81.253ZM78.835 71.4946L85.8128 72.0514L85.8128 72.0514L78.835 71.4946ZM71.4946 78.835L72.0514 85.8128L72.0514 85.8128L71.4946 78.835ZM81.253 60.2778L75.9252 55.7375V55.7375L81.253 60.2778ZM79.3667 64.8317L72.3889 64.2748V64.2748L79.3667 64.8317ZM85.5884 44.8096L90.9162 40.2692V40.2692L85.5884 44.8096ZM85.5884 55.1904L90.9162 59.7308V59.7308L85.5884 55.1904ZM79.3667 35.1683L72.3889 35.7252V35.7252L79.3667 35.1683ZM81.253 39.7222L75.9252 44.2625V44.2625L81.253 39.7222ZM71.4946 21.165L72.0514 14.1872L71.4946 21.165ZM78.835 28.5054L85.8128 27.9486L85.8128 27.9486L78.835 28.5054ZM60.2778 18.747L55.7375 24.0748L60.2778 18.747ZM64.8317 20.6333L64.2748 27.6111L64.8317 20.6333ZM55.1904 14.4116L59.7308 9.08383L55.1904 14.4116ZM44.8096 14.4116L49.3499 19.7394V19.7394L44.8096 14.4116ZM50.6501 19.7394L55.7375 24.0748L64.8181 13.4192L59.7308 9.08383L50.6501 19.7394ZM64.2748 27.6111L70.9377 28.1428L72.0514 14.1872L65.3885 13.6555L64.2748 27.6111ZM71.8572 29.0623L72.3889 35.7252L86.3445 34.6115L85.8128 27.9486L71.8572 29.0623ZM75.9252 44.2625L80.2606 49.3499L90.9162 40.2692L86.5808 35.1819L75.9252 44.2625ZM80.2606 50.6501L75.9252 55.7375L86.5808 64.8181L90.9162 59.7308L80.2606 50.6501ZM72.3889 64.2748L71.8572 70.9377L85.8128 72.0514L86.3445 65.3885L72.3889 64.2748ZM70.9377 71.8572L64.2748 72.3889L65.3885 86.3445L72.0514 85.8128L70.9377 71.8572ZM55.7375 75.9252L50.6501 80.2606L59.7308 90.9162L64.8181 86.5808L55.7375 75.9252ZM49.3499 80.2606L44.2625 75.9252L35.1819 86.5808L40.2692 90.9162L49.3499 80.2606ZM35.7252 72.3889L29.0623 71.8572L27.9486 85.8128L34.6115 86.3445L35.7252 72.3889ZM28.1428 70.9377L27.6111 64.2748L13.6555 65.3885L14.1872 72.0514L28.1428 70.9377ZM24.0748 55.7375L19.7394 50.6501L9.08384 59.7308L13.4192 64.8181L24.0748 55.7375ZM19.7394 49.3499L24.0748 44.2625L13.4192 35.1819L9.08383 40.2692L19.7394 49.3499ZM27.6111 35.7252L28.1428 29.0623L14.1872 27.9486L13.6555 34.6115L27.6111 35.7252ZM29.0623 28.1428L35.7252 27.6111L34.6115 13.6555L27.9486 14.1872L29.0623 28.1428ZM44.2625 24.0748L49.3499 19.7394L40.2692 9.08383L35.1819 13.4192L44.2625 24.0748ZM35.7252 27.6111C38.8721 27.36 41.8597 26.1225 44.2625 24.0748L35.1819 13.4192C35.0213 13.5561 34.8217 13.6387 34.6115 13.6555L35.7252 27.6111ZM28.1428 29.0623C28.182 28.5716 28.5716 28.182 29.0623 28.1428L27.9486 14.1872C20.6048 14.7732 14.7732 20.6048 14.1872 27.9486L28.1428 29.0623ZM24.0748 44.2625C26.1225 41.8597 27.36 38.8721 27.6111 35.7252L13.6555 34.6115C13.6387 34.8217 13.5561 35.0213 13.4192 35.1819L24.0748 44.2625ZM19.7394 50.6501C19.4202 50.2755 19.4202 49.7245 19.7394 49.3499L9.08383 40.2692C4.30539 45.8765 4.30539 54.1235 9.08384 59.7308L19.7394 50.6501ZM27.6111 64.2748C27.36 61.1279 26.1225 58.1403 24.0748 55.7375L13.4192 64.8181C13.5561 64.9787 13.6387 65.1783 13.6555 65.3885L27.6111 64.2748ZM29.0623 71.8572C28.5716 71.818 28.182 71.4284 28.1428 70.9377L14.1872 72.0514C14.7732 79.3952 20.6048 85.2268 27.9486 85.8128L29.0623 71.8572ZM44.2625 75.9252C41.8597 73.8775 38.8721 72.64 35.7252 72.3889L34.6115 86.3445C34.8217 86.3613 35.0213 86.4439 35.1819 86.5808L44.2625 75.9252ZM50.6501 80.2606C50.2755 80.5798 49.7245 80.5798 49.3499 80.2606L40.2692 90.9162C45.8765 95.6946 54.1235 95.6946 59.7308 90.9162L50.6501 80.2606ZM64.2748 72.3889C61.1279 72.64 58.1403 73.8775 55.7375 75.9252L64.8181 86.5808C64.9787 86.4439 65.1783 86.3613 65.3885 86.3445L64.2748 72.3889ZM71.8572 70.9377C71.818 71.4284 71.4284 71.818 70.9377 71.8572L72.0514 85.8128C79.3952 85.2268 85.2268 79.3952 85.8128 72.0514L71.8572 70.9377ZM75.9252 55.7375C73.8775 58.1403 72.64 61.1279 72.3889 64.2748L86.3445 65.3885C86.3613 65.1783 86.4439 64.9787 86.5808 64.8181L75.9252 55.7375ZM80.2606 49.3499C80.5798 49.7245 80.5798 50.2755 80.2606 50.6501L90.9162 59.7308C95.6946 54.1235 95.6946 45.8765 90.9162 40.2692L80.2606 49.3499ZM72.3889 35.7252C72.64 38.8721 73.8775 41.8597 75.9252 44.2625L86.5808 35.1819C86.4439 35.0213 86.3613 34.8217 86.3445 34.6115L72.3889 35.7252ZM70.9377 28.1428C71.4284 28.182 71.818 28.5716 71.8572 29.0623L85.8128 27.9486C85.2268 20.6048 79.3952 14.7732 72.0514 14.1872L70.9377 28.1428ZM55.7375 24.0748C58.1403 26.1225 61.1279 27.36 64.2748 27.6111L65.3885 13.6555C65.1783 13.6387 64.9787 13.5561 64.8181 13.4192L55.7375 24.0748ZM59.7308 9.08383C54.1235 4.30539 45.8765 4.30539 40.2692 9.08384L49.3499 19.7394C49.7245 19.4202 50.2755 19.4202 50.6501 19.7394L59.7308 9.08383Z" fill="#6ED73E" mask="url(#path-1-outside-1_145_3704)"/>
<path d="M64.2678 43.4344C65.2441 42.4581 65.2441 40.8752 64.2678 39.8989C63.2915 38.9225 61.7085 38.9225 60.7322 39.8989L64.2678 43.4344ZM45.8333 58.3333L44.0656 60.1011C45.0419 61.0774 46.6248 61.0774 47.6011 60.1011L45.8333 58.3333ZM39.2678 48.2322C38.2915 47.2559 36.7085 47.2559 35.7322 48.2322C34.7559 49.2085 34.7559 50.7914 35.7322 51.7677L39.2678 48.2322ZM60.7322 39.8989L44.0656 56.5655L47.6011 60.1011L64.2678 43.4344L60.7322 39.8989ZM47.6011 56.5655L39.2678 48.2322L35.7322 51.7677L44.0656 60.1011L47.6011 56.5655Z" fill="#6ED73E"/>
</svg>
