<svg width="24" height="24" viewBox="0 0 24 24" fill="none" xmlns="http://www.w3.org/2000/svg">
<path d="M21 13H22C22 12.4477 21.5523 12 21 12V13ZM21 12H17V14H21V12ZM15 14V19H17V14H15ZM17 21H20V19H17V21ZM22 19V13H20V19H22ZM20 21C21.1046 21 22 20.1046 22 19H20V21ZM15 19C15 20.1046 15.8954 21 17 21V19H15ZM17 12C15.8954 12 15 12.8954 15 14H17V12Z" fill="#FAFAFA"/>
<path d="M3 13V12C2.44772 12 2 12.4477 2 13H3ZM3 14H7V12H3V14ZM7 14V19H9V14H7ZM7 19H4V21H7V19ZM4 19V13H2V19H4ZM4 19L4 19H2C2 20.1046 2.89543 21 4 21V19ZM7 19V21C8.10457 21 9 20.1046 9 19H7ZM7 14H9C9 12.8954 8.10457 12 7 12V14Z" fill="#FAFAFA"/>
<path d="M2 13C2 13.5523 2.44772 14 3 14C3.55228 14 4 13.5523 4 13H2ZM20 13C20 13.5523 20.4477 14 21 14C21.5523 14 22 13.5523 22 13H20ZM4 13C4 8.58172 7.58172 5 12 5V3C6.47715 3 2 7.47715 2 13H4ZM12 5C16.4183 5 20 8.58172 20 13H22C22 7.47715 17.5228 3 12 3V5Z" fill="#FAFAFA"/>
</svg>
