<svg width="25" height="24" viewBox="0 0 25 24" fill="none" xmlns="http://www.w3.org/2000/svg">
<path d="M8.54004 7H16.54V5H8.54004V7ZM16.54 17H8.54004V19H16.54V17ZM8.54004 17C5.77862 17 3.54004 14.7614 3.54004 12H1.54004C1.54004 15.866 4.67405 19 8.54004 19V17ZM21.54 12C21.54 14.7614 19.3015 17 16.54 17V19C20.406 19 23.54 15.866 23.54 12H21.54ZM16.54 7C19.3015 7 21.54 9.23858 21.54 12H23.54C23.54 8.13401 20.406 5 16.54 5V7ZM8.54004 5C4.67405 5 1.54004 8.13401 1.54004 12H3.54004C3.54004 9.23858 5.77862 7 8.54004 7V5Z" fill="#09335E"/>
<path d="M16.54 14C15.4355 14 14.54 13.1046 14.54 12H12.54C12.54 14.2091 14.3309 16 16.54 16V14ZM18.54 12C18.54 13.1046 17.6446 14 16.54 14V16C18.7492 16 20.54 14.2091 20.54 12H18.54ZM16.54 10C17.6446 10 18.54 10.8954 18.54 12H20.54C20.54 9.79086 18.7492 8 16.54 8V10ZM16.54 8C14.3309 8 12.54 9.79086 12.54 12H14.54C14.54 10.8954 15.4355 10 16.54 10V8Z" fill="#09335E"/>
</svg>
