<svg width="60" height="60" viewBox="0 0 60 60" fill="none" xmlns="http://www.w3.org/2000/svg">
<circle cx="30" cy="30" r="30" fill="#133B5C" fill-opacity="0.5"/>
<path d="M30.0013 16.6666C28.2503 16.6666 26.5165 17.0115 24.8989 17.6816C23.2812 18.3516 21.8113 19.3338 20.5732 20.5719C18.0727 23.0724 16.668 26.4637 16.668 30C16.668 33.5362 18.0727 36.9276 20.5732 39.4281C21.8113 40.6662 23.2812 41.6483 24.8989 42.3184C26.5165 42.9884 28.2503 43.3333 30.0013 43.3333C33.5375 43.3333 36.9289 41.9285 39.4294 39.4281C41.9299 36.9276 43.3346 33.5362 43.3346 30C43.3346 28.4533 43.0546 26.92 42.5213 25.48L40.388 27.6133C40.5746 28.4 40.668 29.2 40.668 30C40.668 32.8289 39.5442 35.542 37.5438 37.5424C35.5434 39.5428 32.8303 40.6666 30.0013 40.6666C27.1723 40.6666 24.4592 39.5428 22.4588 37.5424C20.4584 35.542 19.3346 32.8289 19.3346 30C19.3346 27.171 20.4584 24.4579 22.4588 22.4575C24.4592 20.4571 27.1723 19.3333 30.0013 19.3333C30.8013 19.3333 31.6013 19.4266 32.388 19.6133L34.5346 17.4666C33.0813 16.9466 31.548 16.6666 30.0013 16.6666ZM39.3346 16.6666L34.0013 22V24L30.6013 27.4C30.4013 27.3333 30.2013 27.3333 30.0013 27.3333C29.2941 27.3333 28.6158 27.6142 28.1157 28.1143C27.6156 28.6144 27.3346 29.2927 27.3346 30C27.3346 30.7072 27.6156 31.3855 28.1157 31.8856C28.6158 32.3857 29.2941 32.6666 30.0013 32.6666C30.7085 32.6666 31.3868 32.3857 31.8869 31.8856C32.387 31.3855 32.668 30.7072 32.668 30C32.668 29.8 32.668 29.6 32.6013 29.4L36.0013 26H38.0013L43.3346 20.6666H39.3346V16.6666ZM30.0013 22C27.8796 22 25.8447 22.8428 24.3444 24.3431C22.8442 25.8434 22.0013 27.8782 22.0013 30C22.0013 32.1217 22.8442 34.1565 24.3444 35.6568C25.8447 37.1571 27.8796 38 30.0013 38C32.123 38 34.1579 37.1571 35.6582 35.6568C37.1584 34.1565 38.0013 32.1217 38.0013 30H35.3346C35.3346 31.4144 34.7727 32.771 33.7725 33.7712C32.7723 34.7714 31.4158 35.3333 30.0013 35.3333C28.5868 35.3333 27.2303 34.7714 26.2301 33.7712C25.2299 32.771 24.668 31.4144 24.668 30C24.668 28.5855 25.2299 27.2289 26.2301 26.2287C27.2303 25.2285 28.5868 24.6666 30.0013 24.6666V22Z" fill="#09335E"/>
</svg>
