<svg width="27" height="32" viewBox="0 0 27 32" fill="none" xmlns="http://www.w3.org/2000/svg">
<path d="M2.45703 12C2.45703 12.5523 2.90475 13 3.45703 13C4.00932 13 4.45703 12.5523 4.45703 12H2.45703ZM4.45703 20C4.45703 19.4477 4.00932 19 3.45703 19C2.90475 19 2.45703 19.4477 2.45703 20H4.45703ZM21.8329 12C21.8329 12.5523 22.2806 13 22.8329 13C23.3852 13 23.8329 12.5523 23.8329 12H21.8329ZM23.8329 20C23.8329 19.4477 23.3852 19 22.8329 19C22.2806 19 21.8329 19.4477 21.8329 20H23.8329ZM4.53347 9H21.7564V7H4.53347V9ZM21.7564 23H4.53347V25H21.7564V23ZM4.45703 12V9.33333H2.45703V12H4.45703ZM4.45703 22.6667V20H2.45703V22.6667H4.45703ZM21.8329 9.33333V12H23.8329V9.33333H21.8329ZM21.8329 20V22.6667H23.8329V20H21.8329ZM4.53347 23C4.5907 23 4.5908 23.0314 4.55039 22.9813C4.50842 22.9293 4.45703 22.8214 4.45703 22.6667H2.45703C2.45703 23.7448 3.19742 25 4.53347 25V23ZM21.7564 25C23.0925 25 23.8329 23.7448 23.8329 22.6667H21.8329C21.8329 22.8214 21.7815 22.9293 21.7395 22.9813C21.6991 23.0314 21.6992 23 21.7564 23V25ZM21.7564 9C21.6992 9 21.6991 8.96864 21.7395 9.01869C21.7815 9.07068 21.8329 9.17862 21.8329 9.33333H23.8329C23.8329 8.25518 23.0925 7 21.7564 7V9ZM4.53347 7C3.19742 7 2.45703 8.25518 2.45703 9.33333H4.45703C4.45703 9.17862 4.50842 9.07068 4.55039 9.01869C4.5908 8.96864 4.5907 9 4.53347 9V7Z" fill="#09335E"/>
<path d="M22.8328 21C23.3851 21 23.8328 20.5523 23.8328 20C23.8328 19.4477 23.3851 19 22.8328 19V21ZM22.8328 13C23.3851 13 23.8328 12.5523 23.8328 12C23.8328 11.4477 23.3851 11 22.8328 11V13ZM22.8328 19C21.7909 19 20.6035 17.8674 20.6035 16H18.6035C18.6035 18.5509 20.3078 21 22.8328 21V19ZM20.6035 16C20.6035 14.1326 21.7909 13 22.8328 13V11C20.3078 11 18.6035 13.4491 18.6035 16H20.6035Z" fill="#09335E"/>
<path d="M3.45703 11C2.90475 11 2.45703 11.4477 2.45703 12C2.45703 12.5523 2.90475 13 3.45703 13L3.45703 11ZM6.68634 16H5.68634H6.68634ZM3.45703 19C2.90475 19 2.45703 19.4477 2.45703 20C2.45703 20.5523 2.90475 21 3.45703 21L3.45703 19ZM3.45703 13C4.49898 13 5.68634 14.1326 5.68634 16H7.68634C7.68634 13.4491 5.98208 11 3.45703 11L3.45703 13ZM5.68634 16C5.68634 17.8674 4.49898 19 3.45703 19L3.45703 21C5.98208 21 7.68634 18.5509 7.68634 16H5.68634Z" fill="#09335E"/>
<path d="M16.2988 8C16.2988 7.44772 15.8511 7 15.2988 7C14.7465 7 14.2988 7.44772 14.2988 8H16.2988ZM14.2988 24C14.2988 24.5523 14.7465 25 15.2988 25C15.8511 25 16.2988 24.5523 16.2988 24H14.2988ZM14.2988 8V24H16.2988V8H14.2988Z" fill="#09335E"/>
</svg>
