<svg width="46" height="46" viewBox="0 0 46 46" fill="none" xmlns="http://www.w3.org/2000/svg">
<path d="M27.8335 19.1667C27.8335 18.6145 27.3858 18.1667 26.8335 18.1667C26.2812 18.1667 25.8335 18.6145 25.8335 19.1667L27.8335 19.1667ZM25.8335 32.5834C25.8335 33.1357 26.2812 33.5834 26.8335 33.5834C27.3858 33.5834 27.8335 33.1357 27.8335 32.5834H25.8335ZM25.8335 19.1667L25.8335 32.5834H27.8335L27.8335 19.1667L25.8335 19.1667Z" fill="#09335E"/>
<path d="M20.1665 19.1667C20.1665 18.6145 19.7188 18.1667 19.1665 18.1667C18.6142 18.1667 18.1665 18.6145 18.1665 19.1667L20.1665 19.1667ZM18.1665 32.5834C18.1665 33.1357 18.6142 33.5834 19.1665 33.5834C19.7188 33.5834 20.1665 33.1357 20.1665 32.5834H18.1665ZM18.1665 19.1667L18.1665 32.5834H20.1665L20.1665 19.1667L18.1665 19.1667Z" fill="#09335E"/>
<path d="M11.5 11.5V10.5C10.9477 10.5 10.5 10.9477 10.5 11.5H11.5ZM34.5 11.5H35.5C35.5 10.9477 35.0523 10.5 34.5 10.5V11.5ZM11.5 12.5H34.5V10.5H11.5V12.5ZM33.5 11.5V38.3333H35.5V11.5H33.5ZM32.5833 39.25H13.4167V41.25H32.5833V39.25ZM12.5 38.3333V11.5H10.5V38.3333H12.5ZM13.4167 39.25C12.9104 39.25 12.5 38.8396 12.5 38.3333H10.5C10.5 39.9442 11.8058 41.25 13.4167 41.25V39.25ZM33.5 38.3333C33.5 38.8396 33.0896 39.25 32.5833 39.25V41.25C34.1942 41.25 35.5 39.9442 35.5 38.3333H33.5Z" fill="#09335E"/>
<path d="M7.6665 10.5C7.11422 10.5 6.6665 10.9477 6.6665 11.5C6.6665 12.0523 7.11422 12.5 7.6665 12.5V10.5ZM38.3332 12.5C38.8855 12.5 39.3332 12.0523 39.3332 11.5C39.3332 10.9477 38.8855 10.5 38.3332 10.5V12.5ZM7.6665 12.5H38.3332V10.5H7.6665V12.5Z" fill="#09335E"/>
<path d="M30.6668 11.5V12.5C31.2191 12.5 31.6668 12.0523 31.6668 11.5H30.6668ZM15.3335 11.5H14.3335C14.3335 12.0523 14.7812 12.5 15.3335 12.5V11.5ZM17.2502 6.75H28.7502V4.75H17.2502V6.75ZM29.6668 7.66667V11.5H31.6668V7.66667H29.6668ZM30.6668 10.5H15.3335V12.5H30.6668V10.5ZM16.3335 11.5V7.66667H14.3335V11.5H16.3335ZM28.7502 6.75C29.2564 6.75 29.6668 7.16041 29.6668 7.66667H31.6668C31.6668 6.05584 30.361 4.75 28.7502 4.75V6.75ZM17.2502 4.75C15.6393 4.75 14.3335 6.05584 14.3335 7.66667H16.3335C16.3335 7.16041 16.7439 6.75 17.2502 6.75V4.75Z" fill="#09335E"/>
</svg>
