<svg width="40" height="38" viewBox="0 0 40 38" fill="none" xmlns="http://www.w3.org/2000/svg">
<rect width="40" height="38" rx="10" fill="#BBD0F5"/>
<path d="M12 28C12 28.5523 12.4477 29 13 29C13.5523 29 14 28.5523 14 28H12ZM26 28C26 28.5523 26.4477 29 27 29C27.5523 29 28 28.5523 28 28H26ZM14 28C14 24.6863 16.6863 22 20 22V20C15.5817 20 12 23.5817 12 28H14ZM20 22C23.3137 22 26 24.6863 26 28H28C28 23.5817 24.4183 20 20 20V22Z" fill="#09335E"/>
<path d="M23 14C23 15.6569 21.6569 17 20 17V19C22.7614 19 25 16.7614 25 14H23ZM20 17C18.3431 17 17 15.6569 17 14H15C15 16.7614 17.2386 19 20 19V17ZM17 14C17 12.3431 18.3431 11 20 11V9C17.2386 9 15 11.2386 15 14H17ZM20 11C21.6569 11 23 12.3431 23 14H25C25 11.2386 22.7614 9 20 9V11Z" fill="#09335E"/>
</svg>
